<svg viewBox="0 0 640 400" data-background-color="#ffffff" preserveAspectRatio="xMidYMid meet" height="400" width="640" xmlns="http://www.w3.org/2000/svg" xmlns:xlink="http://www.w3.org/1999/xlink"><rect width="640" height="400" x="0" y="0" opacity="1" fill="#ffffff" data-fill-palette-color="background" id="background"></rect><g id="tight-bounds" transform="matrix(1,0,0,1,122.24000000000001,76.4)"><svg viewBox="0 0 395.52 247.2" height="247.2" width="395.52"><g><svg></svg></g><g><svg viewBox="0 0 395.52 247.2" height="247.2" width="395.52"><g><path d="M79.454 236.118c-15.837 0.208-29.59-2.292-41.259-7.502-11.669-5.209-22.817-13.024-33.444-23.442-1.042-0.834-1.917-1.875-2.626-3.126-0.75-1.25-1.125-2.709-1.125-4.376 0-2.501 0.979-4.793 2.938-6.876 2-2.084 4.251-3.126 6.752-3.126 2.501 0 4.793 1.042 6.876 3.126 8.127 8.752 17.358 15.42 27.693 20.004 10.294 4.584 21.379 6.876 33.257 6.876 10.002 0 18.921-1.563 26.756-4.688 7.793-3.126 13.982-7.606 18.566-13.441 4.584-5.835 6.876-12.607 6.877-20.316 0-6.055-1.04-11.387-3.119-15.996h21.279c1.021 4.804 1.531 10.136 1.531 15.996 0 10.627-3.021 20.213-9.064 28.756-6.043 8.543-14.316 15.316-24.818 20.316-10.544 5.001-22.901 7.606-37.07 7.815zM9.752 67.957c0-11.044 2.917-20.838 8.752-29.381 5.835-8.543 14.128-15.274 24.88-20.192 10.711-4.876 23.151-7.314 37.32-7.314 12.294 0 24.13 2.084 35.508 6.252 11.336 4.168 20.338 10.315 27.005 18.441 3.126 3.334 4.688 6.356 4.689 9.064 0 2.084-1.042 4.168-3.126 6.252-2.084 2.084-4.376 3.126-6.876 3.125-2.084 0-3.855-0.729-5.314-2.187-3.542-4.376-8.023-8.293-13.44-11.753-5.418-3.417-11.419-6.064-18.004-7.939-6.543-1.875-13.357-2.813-20.442-2.813-9.794 0-18.587 1.5-26.38 4.501-7.835 3.042-13.982 7.377-18.442 13.002-4.501 5.626-6.751 12.398-6.751 20.317 0 6.373 1.326 11.917 3.978 16.633l-21.568 0c-1.193-4.814-1.789-10.15-1.789-16.008zM204.168 14.196c1.459 0 2.98 0.313 4.563 0.938 1.542 0.625 2.834 1.667 3.876 3.125l43.804 65.706-21.584 0-21.595-32.902v32.902l-18.441 0v-60.392c0-2.501 0.896-4.688 2.688-6.564 1.75-1.875 3.98-2.813 6.689-2.813zM377.016 18.259c2.292-3.126 5.105-4.48 8.44-4.063 2.501 0 4.647 0.875 6.438 2.626 1.75 1.792 2.626 4.043 2.626 6.751l0 60.392-19.692 0v-32.183l-21.259 32.183-20.622 0zM394.52 223.615c0 2.501-0.938 4.688-2.813 6.564-1.875 1.875-4.168 2.813-6.877 2.813-2.917 0-5.314-0.938-7.189-2.813-1.875-1.875-2.813-4.063-2.813-6.564l0-60.38 19.692 0zM298.562 165.915c-1.25 0.75-2.709 1.021-4.376 0.813-1.459 0.208-2.855-0.063-4.188-0.813-1.279-0.659-2.324-1.553-3.135-2.68h14.377c-0.622 1.128-1.515 2.021-2.678 2.68zM213.232 223.615c0 2.501-0.875 4.688-2.626 6.564-1.792 1.875-4.043 2.813-6.751 2.813-2.709 0-4.897-0.938-6.564-2.813-1.667-1.875-2.501-4.063-2.5-6.564l0-60.38 18.441 0z" fill="#111111" data-fill-palette-color="tertiary"></path></g><g transform="matrix(1,0,0,1,2.842170943040401e-14,92.9192936128074)"><svg viewBox="0 0 395.5199999999999 61.361412774385194" height="61.361412774385194" width="395.5199999999999"><g><svg viewBox="0 0 395.5199999999999 61.361412774385194" height="61.361412774385194" width="395.5199999999999"><g><svg viewBox="0 0 395.5199999999999 61.361412774385194" height="61.361412774385194" width="395.5199999999999"><g><svg viewBox="0 0 395.5199999999999 61.361412774385194" height="61.361412774385194" width="395.5199999999999"><g><svg viewBox="0 0 395.5199999999999 61.361412774385194" height="61.361412774385194" width="395.5199999999999"><g><svg viewBox="0 0 395.5199999999999 61.361412774385194" height="61.361412774385194" width="395.5199999999999"><g transform="matrix(1,0,0,1,0,0)"><svg width="395.5199999999999" viewBox="1.7999999523162842 -37 302.9300231933594 47" height="61.361412774385194" data-palette-color="#2b2b2b"><path d="M14.35 0.5L14.35 0.5Q10.55 0.55 7.75-0.7 4.95-1.95 2.4-4.45L2.4-4.45Q2.15-4.65 1.98-4.95 1.8-5.25 1.8-5.65L1.8-5.65Q1.8-6.25 2.27-6.75 2.75-7.25 3.35-7.25L3.35-7.25Q3.95-7.25 4.45-6.75L4.45-6.75Q6.4-4.65 8.88-3.55 11.35-2.45 14.2-2.45L14.2-2.45Q16.6-2.45 18.48-3.2 20.35-3.95 21.45-5.35 22.55-6.75 22.55-8.6L22.55-8.6Q22.55-10.9 21.3-12.33 20.05-13.75 18-14.68 15.95-15.6 13.45-16.35L13.45-16.35Q11.4-16.95 9.55-17.73 7.7-18.5 6.25-19.63 4.8-20.75 4-22.4 3.2-24.05 3.2-26.4L3.2-26.4Q3.2-29.05 4.6-31.1 6-33.15 8.58-34.33 11.15-35.5 14.55-35.5L14.55-35.5Q17.5-35.5 20.23-34.5 22.95-33.5 24.55-31.55L24.55-31.55Q25.3-30.75 25.3-30.1L25.3-30.1Q25.3-29.6 24.8-29.1 24.3-28.6 23.7-28.6L23.7-28.6Q23.2-28.6 22.85-28.95L22.85-28.95Q22-30 20.7-30.83 19.4-31.65 17.82-32.1 16.25-32.55 14.55-32.55L14.55-32.55Q12.2-32.55 10.33-31.83 8.45-31.1 7.38-29.75 6.3-28.4 6.3-26.5L6.3-26.5Q6.3-24.4 7.5-23.05 8.7-21.7 10.65-20.83 12.6-19.95 14.8-19.2L14.8-19.2Q16.95-18.6 18.93-17.82 20.9-17.05 22.43-15.9 23.95-14.75 24.83-13 25.7-11.25 25.7-8.6L25.7-8.6Q25.7-6.05 24.25-4 22.8-1.95 20.28-0.75 17.75 0.45 14.35 0.5ZM51.1-26L51.1-26Q51.75-26 52.17-25.55 52.6-25.1 52.6-24.5L52.6-24.5 52.6-2.45Q52.6 1.6 51 4.38 49.4 7.15 46.7 8.58 44 10 40.55 10L40.55 10Q38.4 10 36.57 9.53 34.75 9.05 33.6 8.3L33.6 8.3Q33 7.95 32.7 7.45 32.4 6.95 32.65 6.4L32.65 6.4Q32.9 5.7 33.42 5.48 33.95 5.25 34.5 5.5L34.5 5.5Q35.35 5.95 36.95 6.6 38.55 7.25 40.6 7.25L40.6 7.25Q43.35 7.25 45.37 6.1 47.4 4.95 48.5 2.78 49.6 0.6 49.6-2.4L49.6-2.4 49.6-6 49.95-4.8Q49.2-3.25 47.82-2.05 46.45-0.85 44.67-0.18 42.9 0.5 40.9 0.5L40.9 0.5Q37.9 0.5 35.92-0.73 33.95-1.95 33-4.1 32.05-6.25 32.05-9.15L32.05-9.15 32.05-24.5Q32.05-25.1 32.45-25.55 32.85-26 33.55-26L33.55-26Q34.2-26 34.62-25.55 35.05-25.1 35.05-24.5L35.05-24.5 35.05-9.6Q35.05-6.1 36.57-4.2 38.1-2.3 41.55-2.3L41.55-2.3Q43.7-2.3 45.5-3.33 47.3-4.35 48.45-6.03 49.6-7.7 49.6-9.6L49.6-9.6 49.6-24.5Q49.6-25.1 50.02-25.55 50.45-26 51.1-26ZM71.55 0.5L71.55 0.5Q67.7 0.5 64.75-1.15 61.8-2.8 60.15-5.75 58.5-8.7 58.5-12.65L58.5-12.65Q58.5-16.9 60.17-19.9 61.85-22.9 64.52-24.53 67.2-26.15 70.2-26.15L70.2-26.15Q72.4-26.15 74.47-25.38 76.55-24.6 78.15-23.08 79.75-21.55 80.75-19.35 81.75-17.15 81.8-14.25L81.8-14.25Q81.8-13.65 81.34-13.23 80.9-12.8 80.3-12.8L80.3-12.8 60.25-12.8 59.65-15.5 79.34-15.5 78.7-14.9 78.7-15.9Q78.45-18.25 77.15-19.9 75.84-21.55 74.02-22.4 72.2-23.25 70.2-23.25L70.2-23.25Q68.7-23.25 67.12-22.65 65.55-22.05 64.27-20.78 63-19.5 62.2-17.53 61.4-15.55 61.4-12.85L61.4-12.85Q61.4-9.9 62.6-7.5 63.8-5.1 66.05-3.7 68.3-2.3 71.5-2.3L71.5-2.3Q73.2-2.3 74.59-2.8 76-3.3 77.07-4.13 78.15-4.95 78.84-5.85L78.84-5.85Q79.4-6.3 79.9-6.3L79.9-6.3Q80.45-6.3 80.82-5.9 81.2-5.5 81.2-5L81.2-5Q81.2-4.4 80.7-3.95L80.7-3.95Q79.2-2.15 76.8-0.83 74.4 0.5 71.55 0.5ZM108.74-37L108.74-37Q109.39-37 109.82-36.58 110.24-36.15 110.24-35.5L110.24-35.5 110.24-1.5Q110.24-0.9 109.79-0.45 109.34 0 108.74 0L108.74 0Q108.04 0 107.64-0.45 107.24-0.9 107.24-1.5L107.24-1.5 107.24-7.45 108.09-8.15Q108.09-6.75 107.34-5.23 106.59-3.7 105.22-2.4 103.84-1.1 102.02-0.3 100.19 0.5 98.04 0.5L98.04 0.5Q94.74 0.5 92.07-1.25 89.39-3 87.84-6 86.29-9 86.29-12.85L86.29-12.85Q86.29-16.65 87.84-19.68 89.39-22.7 92.04-24.43 94.69-26.15 97.99-26.15L97.99-26.15Q100.09-26.15 101.94-25.4 103.79-24.65 105.22-23.35 106.64-22.05 107.47-20.38 108.29-18.7 108.29-16.9L108.29-16.9 107.24-17.65 107.24-35.5Q107.24-36.1 107.64-36.55 108.04-37 108.74-37ZM98.34-2.3L98.34-2.3Q100.99-2.3 103.04-3.68 105.09-5.05 106.27-7.43 107.44-9.8 107.44-12.85L107.44-12.85Q107.44-15.85 106.27-18.23 105.09-20.6 103.04-21.98 100.99-23.35 98.34-23.35L98.34-23.35Q95.74-23.35 93.67-21.98 91.59-20.6 90.42-18.23 89.24-15.85 89.24-12.85L89.24-12.85Q89.24-9.85 90.42-7.45 91.59-5.05 93.67-3.68 95.74-2.3 98.34-2.3ZM133.99-35L133.99-35Q134.34-35 134.71-34.85 135.09-34.7 135.34-34.35L135.34-34.35 149.14-13.65 147.79-13.7 161.64-34.35Q162.19-35.1 162.99-35L162.99-35Q163.59-35 164.01-34.58 164.44-34.15 164.44-33.5L164.44-33.5 164.44-1.5Q164.44-0.9 163.99-0.45 163.54 0 162.89 0L162.89 0Q162.19 0 161.74-0.45 161.29-0.9 161.29-1.5L161.29-1.5 161.29-30.45 162.19-30.35 149.54-11.2Q149.39-10.9 149.09-10.73 148.79-10.55 148.39-10.6L148.39-10.6Q148.04-10.55 147.71-10.73 147.39-10.9 147.19-11.2L147.19-11.2 134.49-30.55 135.44-31.2 135.44-1.5Q135.44-0.9 135.01-0.45 134.59 0 133.94 0L133.94 0Q133.29 0 132.89-0.45 132.49-0.9 132.49-1.5L132.49-1.5 132.49-33.5Q132.49-34.1 132.91-34.55 133.34-35 133.99-35ZM193.84-25.55L193.84-25.55Q194.49-25.55 194.91-25.1 195.34-24.65 195.34-24L195.34-24 195.34-1.5Q195.34-0.9 194.89-0.45 194.44 0 193.84 0L193.84 0Q193.14 0 192.74-0.45 192.34-0.9 192.34-1.5L192.34-1.5 192.34-7.45 193.19-7.85Q193.19-6.45 192.41-5 191.64-3.55 190.29-2.3 188.94-1.05 187.11-0.28 185.29 0.5 183.14 0.5L183.14 0.5Q179.79 0.5 177.11-1.25 174.44-3 172.91-6.05 171.39-9.1 171.39-12.9L171.39-12.9Q171.39-16.8 172.94-19.78 174.49-22.75 177.14-24.45 179.79-26.15 183.09-26.15L183.09-26.15Q185.24-26.15 187.11-25.4 188.99-24.65 190.39-23.35 191.79-22.05 192.59-20.38 193.39-18.7 193.39-16.9L193.39-16.9 192.34-17.65 192.34-24Q192.34-24.65 192.74-25.1 193.14-25.55 193.84-25.55ZM183.44-2.3L183.44-2.3Q186.09-2.3 188.14-3.68 190.19-5.05 191.36-7.48 192.54-9.9 192.54-12.9L192.54-12.9Q192.54-15.85 191.36-18.2 190.19-20.55 188.14-21.95 186.09-23.35 183.44-23.35L183.44-23.35Q180.84-23.35 178.76-22 176.69-20.65 175.51-18.3 174.34-15.95 174.34-12.9L174.34-12.9Q174.34-9.9 175.49-7.48 176.64-5.05 178.71-3.68 180.79-2.3 183.44-2.3ZM204.68 0L204.68 0Q203.98 0 203.58-0.45 203.18-0.9 203.18-1.5L203.18-1.5 203.18-23.9Q203.18-24.5 203.61-24.95 204.03-25.4 204.68-25.4L204.68-25.4Q205.33-25.4 205.76-24.95 206.18-24.5 206.18-23.9L206.18-23.9 206.18-16.4 205.43-16.25Q205.58-18 206.31-19.73 207.03-21.45 208.28-22.9 209.53-24.35 211.26-25.25 212.98-26.15 215.13-26.15L215.13-26.15Q216.03-26.15 216.88-25.78 217.73-25.4 217.73-24.55L217.73-24.55Q217.73-23.8 217.33-23.4 216.93-23 216.38-23L216.38-23Q215.93-23 215.41-23.25 214.88-23.5 214.03-23.5L214.03-23.5Q212.63-23.5 211.23-22.68 209.83-21.85 208.68-20.45 207.53-19.05 206.86-17.32 206.18-15.6 206.18-13.85L206.18-13.85 206.18-1.5Q206.18-0.9 205.73-0.45 205.28 0 204.68 0ZM244.93-12.8L244.93-12.8Q244.93-9 243.26-5.98 241.58-2.95 238.73-1.23 235.88 0.5 232.28 0.5L232.28 0.5Q228.73 0.5 225.86-1.23 222.98-2.95 221.31-5.98 219.63-9 219.63-12.8L219.63-12.8Q219.63-16.65 221.31-19.65 222.98-22.65 225.86-24.4 228.73-26.15 232.28-26.15L232.28-26.15Q235.88-26.15 238.73-24.4 241.58-22.65 243.26-19.65 244.93-16.65 244.93-12.8ZM241.93-12.8L241.93-12.8Q241.93-15.85 240.68-18.23 239.43-20.6 237.26-21.98 235.08-23.35 232.28-23.35L232.28-23.35Q229.53-23.35 227.36-21.98 225.18-20.6 223.91-18.23 222.63-15.85 222.63-12.8L222.63-12.8Q222.63-9.75 223.91-7.4 225.18-5.05 227.36-3.68 229.53-2.3 232.28-2.3L232.28-2.3Q235.08-2.3 237.26-3.68 239.43-5.05 240.68-7.4 241.93-9.75 241.93-12.8ZM274.68-12.8L274.68-12.8Q274.68-9 273-5.98 271.33-2.95 268.48-1.23 265.63 0.5 262.03 0.5L262.03 0.5Q258.48 0.5 255.6-1.23 252.73-2.95 251.05-5.98 249.38-9 249.38-12.8L249.38-12.8Q249.38-16.65 251.05-19.65 252.73-22.65 255.6-24.4 258.48-26.15 262.03-26.15L262.03-26.15Q265.63-26.15 268.48-24.4 271.33-22.65 273-19.65 274.68-16.65 274.68-12.8ZM271.68-12.8L271.68-12.8Q271.68-15.85 270.43-18.23 269.18-20.6 267-21.98 264.83-23.35 262.03-23.35L262.03-23.35Q259.28-23.35 257.1-21.98 254.93-20.6 253.65-18.23 252.38-15.85 252.38-12.8L252.38-12.8Q252.38-9.75 253.65-7.4 254.93-5.05 257.1-3.68 259.28-2.3 262.03-2.3L262.03-2.3Q264.83-2.3 267-3.68 269.18-5.05 270.43-7.4 271.68-9.75 271.68-12.8ZM292.98-26.15L292.98-26.15Q296.38-26.15 299-24.45 301.63-22.75 303.18-19.78 304.73-16.8 304.73-12.9L304.73-12.9Q304.73-9.1 303.18-6.05 301.63-3 298.98-1.25 296.33 0.5 293.03 0.5L293.03 0.5Q291.28 0.5 289.7-0.05 288.13-0.6 286.83-1.53 285.53-2.45 284.53-3.7 283.53-4.95 282.93-6.4L282.93-6.4 283.83-7.05 283.83-1.4Q283.83-0.75 283.4-0.33 282.98 0.1 282.33 0.1L282.33 0.1Q281.68 0.1 281.25-0.33 280.83-0.75 280.83-1.4L280.83-1.4 280.83-35.45Q280.83-36.1 281.23-36.52 281.63-36.95 282.33-36.95L282.33-36.95Q282.98-36.95 283.4-36.52 283.83-36.1 283.83-35.45L283.83-35.45 283.83-18.7 283.13-19.1Q283.63-20.65 284.6-21.93 285.58-23.2 286.88-24.15 288.18-25.1 289.73-25.63 291.28-26.15 292.98-26.15ZM292.73-23.35L292.73-23.35Q290.03-23.35 287.98-22 285.93-20.65 284.75-18.3 283.58-15.95 283.58-12.9L283.58-12.9Q283.58-9.9 284.75-7.48 285.93-5.05 287.98-3.68 290.03-2.3 292.73-2.3L292.73-2.3Q295.38-2.3 297.4-3.7 299.43-5.1 300.63-7.53 301.83-9.95 301.83-12.9L301.83-12.9Q301.83-15.95 300.63-18.3 299.43-20.65 297.4-22 295.38-23.35 292.73-23.35Z" opacity="1" transform="matrix(1,0,0,1,0,0)" fill="#2b2b2b" class="undefined-text-0" data-fill-palette-color="primary" id="text-0"></path></svg></g></svg></g></svg></g></svg></g><g></g></svg></g></svg></g></svg></g></svg></g></svg><rect width="395.52" height="247.2" fill="none" stroke="none" visibility="hidden"></rect></g><defs></defs></svg>